<svg xmlns="http://www.w3.org/2000/svg" width="32" height="32" viewBox="0 0 32 32">
  <g id="Group_2646" data-name="Group 2646" transform="translate(-435 -127)">
    <circle id="Ellipse_25" data-name="Ellipse 25" cx="16" cy="16" r="16" transform="translate(435 127)" fill="#0d5ea4" opacity="0.2"/>
    <g id="customer" transform="translate(444 104)">
      <path id="Path_1533" data-name="Path 1533" d="M171.488,37.975A2.488,2.488,0,1,0,169,35.488,2.491,2.491,0,0,0,171.488,37.975Zm0-4.118a1.63,1.63,0,1,1-1.63,1.63A1.632,1.632,0,0,1,171.488,33.858Z" transform="translate(-164.168)" fill="#0d5ea4" stroke="#0d5ea4" stroke-width="0.2"/>
      <path id="Path_1534" data-name="Path 1534" d="M378.573,100.145A1.573,1.573,0,1,0,377,98.573,1.574,1.574,0,0,0,378.573,100.145Zm0-2.288a.715.715,0,1,1-.715.715A.716.716,0,0,1,378.573,97.858Z" transform="translate(-366.22 -62.17)" fill="#0d5ea4" stroke="#0d5ea4" stroke-width="0.2"/>
      <path id="Path_1535" data-name="Path 1535" d="M12.7,241h-.663a1.944,1.944,0,0,0-1.764,1.125A3.452,3.452,0,0,0,7.72,241h-.8a3.452,3.452,0,0,0-2.551,1.125A1.945,1.945,0,0,0,2.6,241H1.942A1.938,1.938,0,0,0,0,242.93v3.123a.84.84,0,0,0,.841.838H3.464a1,1,0,0,0,1,.915h5.718a1,1,0,0,0,1-.915h2.593a.87.87,0,0,0,.871-.868V242.93A1.938,1.938,0,0,0,12.7,241ZM.858,242.93a1.079,1.079,0,0,1,1.084-1.072H2.6a1.079,1.079,0,0,1,1.084,1.072v.294a7.127,7.127,0,0,0-.229,2.809H.858Zm9.465,3.874a.144.144,0,0,1-.144.144H4.461a.144.144,0,0,1-.144-.144v-2.344a2.606,2.606,0,0,1,2.6-2.6h.8a2.606,2.606,0,0,1,2.6,2.6Zm3.46-.781c0,.015.16.01-2.6.01a7.1,7.1,0,0,0-.229-2.809v-.294a1.079,1.079,0,0,1,1.084-1.072H12.7a1.079,1.079,0,0,1,1.084,1.072Z" transform="translate(0 -202.052)" fill="#0d5ea4" stroke="#0d5ea4" stroke-width="0.2"/>
      <path id="Path_1536" data-name="Path 1536" d="M26.573,100.145A1.573,1.573,0,1,0,25,98.573,1.574,1.574,0,0,0,26.573,100.145Zm0-2.288a.715.715,0,1,1-.715.715A.716.716,0,0,1,26.573,97.858Z" transform="translate(-24.285 -62.17)" fill="#0d5ea4" stroke="#0d5ea4" stroke-width="0.2"/>
    </g>
  </g>
</svg>
