<svg xmlns="http://www.w3.org/2000/svg" width="32" height="32" viewBox="0 0 32 32">
  <g id="Group_2645" data-name="Group 2645" transform="translate(-435 -127)">
    <circle id="Ellipse_25" data-name="Ellipse 25" cx="16" cy="16" r="16" transform="translate(435 127)" fill="#79d7fa" opacity="0.3"/>
    <g id="bounce" transform="translate(443.938 14.667)">
      <g id="Group_2644" data-name="Group 2644" transform="translate(-0.939 124.333)">
        <path id="Path_1532" data-name="Path 1532" d="M3.3,128h3.92a.392.392,0,0,1,.392.392v.784a.392.392,0,0,1-.392.392H5.662l6.458,5.906,6.286-7.39a.394.394,0,0,1,.555.025l.754.515a.39.39,0,0,1-.025.552L12.855,137.2a.787.787,0,0,1-1.056,0l-7.327-6.6v1.708a.392.392,0,0,1-.392.392H3.3a.392.392,0,0,1-.392-.392v-3.92A.392.392,0,0,1,3.3,128Z" transform="translate(-2.904 -127.999)" fill="#58c6f7" stroke="#58c6f7" stroke-width="0.4"/>
      </g>
    </g>
  </g>
</svg>
