<svg xmlns="http://www.w3.org/2000/svg" width="60.268" height="63.712" viewBox="0 0 60.268 63.712">
  <g id="delete_popup" transform="translate(-13.838)">
    <g id="Group_2537" data-name="Group 2537" transform="translate(19.875 12.259)">
      <g id="Group_2536" data-name="Group 2536">
        <path id="Path_1468" data-name="Path 1468" d="M105.4,98.512,101.341,144.8H71.561L67.5,98.512l-5.146.451,4.135,47.127a4.349,4.349,0,0,0,4.292,3.875h31.34a4.357,4.357,0,0,0,4.3-3.906l4.133-47.1Z" transform="translate(-62.354 -98.512)" fill="rgba(249,23,23,0.82)"/>
      </g>
    </g>
    <g id="Group_2539" data-name="Group 2539" transform="translate(30.197)">
      <g id="Group_2538" data-name="Group 2538" transform="translate(0)">
        <path id="Path_1469" data-name="Path 1469" d="M168.543,0H149.6a4.31,4.31,0,0,0-4.3,4.3v8.179h5.166V5.166h17.22v7.318h5.166V4.3A4.309,4.309,0,0,0,168.543,0Z" transform="translate(-145.297)" fill="rgba(249,23,23,0.82)"/>
      </g>
    </g>
    <g id="Group_2541" data-name="Group 2541" transform="translate(13.838 9.901)">
      <g id="Group_2540" data-name="Group 2540" transform="translate(0)">
        <path id="Path_1470" data-name="Path 1470" d="M71.523,79.568h-55.1a2.583,2.583,0,0,0,0,5.166h55.1a2.583,2.583,0,1,0,0-5.166Z" transform="translate(-13.838 -79.568)" fill="rgba(249,23,23,0.82)"/>
      </g>
    </g>
  </g>
</svg>
