<svg xmlns="http://www.w3.org/2000/svg" width="13.278" height="14" viewBox="0 0 13.278 14">
  <g id="delete" transform="translate(-13.838)">
    <g id="Group_2537" data-name="Group 2537" transform="translate(15.168 2.664)">
      <g id="Group_2536" data-name="Group 2536">
        <path id="Path_1468" data-name="Path 1468" d="M71.838,98.512l-.895,10.2H64.382l-.895-10.2-1.134.1.911,10.383a.958.958,0,0,0,.946.854h6.9a.96.96,0,0,0,.946-.861l.91-10.376Z" transform="translate(-62.354 -98.512)" fill="rgba(249,23,23,0.82)"/>
      </g>
    </g>
    <g id="Group_2539" data-name="Group 2539" transform="translate(17.442)">
      <g id="Group_2538" data-name="Group 2538" transform="translate(0)">
        <path id="Path_1469" data-name="Path 1469" d="M150.418,0h-4.173a.949.949,0,0,0-.948.948v1.8h1.138V1.138h3.794V2.75h1.138V.948A.949.949,0,0,0,150.418,0Z" transform="translate(-145.297)" fill="rgba(249,23,23,0.82)"/>
      </g>
    </g>
    <g id="Group_2541" data-name="Group 2541" transform="translate(13.838 2.175)">
      <g id="Group_2540" data-name="Group 2540" transform="translate(0)">
        <path id="Path_1470" data-name="Path 1470" d="M26.547,79.568H14.407a.569.569,0,0,0,0,1.138h12.14a.569.569,0,1,0,0-1.138Z" transform="translate(-13.838 -79.568)" fill="rgba(249,23,23,0.82)"/>
      </g>
    </g>
  </g>
</svg>
