<svg xmlns="http://www.w3.org/2000/svg" width="14" height="14" viewBox="0 0 14 14">
  <g id="edit" transform="translate(-1.618 -1.617)">
    <path id="Path_163" data-name="Path 163" d="M15.042,3.121l-.928-.928a1.97,1.97,0,0,0-2.783,0L2.983,10.542a.434.434,0,0,0-.111.189L1.635,15.06a.437.437,0,0,0,.421.558.426.426,0,0,0,.12-.017L6.5,14.363a.436.436,0,0,0,.189-.111L15.042,5.9a1.968,1.968,0,0,0,0-2.783ZM6.155,13.554l-3.464.989.99-3.463L10.4,4.358l2.474,2.474Zm8.269-8.269-.928.928L11.022,3.74l.928-.928a1.1,1.1,0,0,1,1.547,0l.928.928a1.092,1.092,0,0,1,0,1.546Z" transform="translate(0 0)" fill="#0d5ea4"/>
  </g>
</svg>
