<svg xmlns="http://www.w3.org/2000/svg" width="14" height="10.5" viewBox="0 0 14 10.5">
  <g id="eye" transform="translate(0 -68.887)">
    <path id="Path_1478" data-name="Path 1478" d="M7,68.887A7.434,7.434,0,0,0,.023,74a.439.439,0,0,0,0,.283A7.434,7.434,0,0,0,7,79.387a7.434,7.434,0,0,0,6.977-5.109.439.439,0,0,0,0-.283A7.434,7.434,0,0,0,7,68.887Zm0,9.625A6.553,6.553,0,0,1,.9,74.137,6.553,6.553,0,0,1,7,69.762a6.553,6.553,0,0,1,6.1,4.375A6.553,6.553,0,0,1,7,78.512Z" transform="translate(0 0)"/>
    <path id="Path_1479" data-name="Path 1479" d="M174.851,172.224a2.632,2.632,0,1,0,2.627,2.632A2.633,2.633,0,0,0,174.851,172.224Zm0,4.387a1.755,1.755,0,1,1,1.752-1.755A1.755,1.755,0,0,1,174.851,176.611Z" transform="translate(-167.851 -100.719)"/>
  </g>
</svg>

