<svg xmlns="http://www.w3.org/2000/svg" width="72" height="51" viewBox="0 0 72 51">
  <g id="logo" transform="translate(-117.69 -79.678)">
    <rect id="Rectangle_217" data-name="Rectangle 217" width="72" height="50" transform="translate(117.69 79.678)" fill="rgba(0,0,0,0)"/>
    <g id="Layer_11_copy_2" data-name="Layer 11 copy 2" transform="translate(117.849 79.843)">
      <g id="Group_2479" data-name="Group 2479" transform="translate(0 39.259)" style="isolation: isolate">
        <path id="Path_1434" data-name="Path 1434" d="M.033,141.81H2.3a.033.033,0,0,1,.033.036v7.239a.03.03,0,0,1-.033.033H.033A.03.03,0,0,1,0,149.085v-7.239A.033.033,0,0,1,.033,141.81Z" transform="translate(0.001 -141.81)" fill="#fff"/>
        <path id="Path_1435" data-name="Path 1435" d="M15.473,141.81h7.752a2.536,2.536,0,0,1,1.88.9,1.841,1.841,0,0,1,.382,1.063v5.313a.03.03,0,0,1-.033.033H23.169a.03.03,0,0,1-.033-.033v-4.23a1.2,1.2,0,0,0-.831-1.26,1.486,1.486,0,0,0-.363-.047H17.773v5.537a.03.03,0,0,1-.033.033H15.473a.03.03,0,0,1-.033-.033v-7.239C15.442,141.821,15.453,141.81,15.473,141.81Z" transform="translate(-11.165 -141.81)" fill="#fff"/>
        <path id="Path_1436" data-name="Path 1436" d="M58.733,141.81H68.7a.033.033,0,0,1,.033.036v1.661c0,.025,0,.036-.033.036H58.733c-.022,0-.033,0-.033-.036v-1.661C58.7,141.821,58.713,141.81,58.733,141.81Zm0,2.863H68.7a.029.029,0,0,1,.033.033v1.52a.03.03,0,0,1-.033.033H61.036v2.827c0,.022,0,.033-.036.033H58.733a.03.03,0,0,1-.033-.033v-4.38Q58.705,144.673,58.733,144.673Z" transform="translate(-42.449 -141.81)" fill="#fff"/>
        <path id="Path_1437" data-name="Path 1437" d="M101.993,141.81h2.27a.033.033,0,0,1,.033.036v7.239a.03.03,0,0,1-.033.033h-2.27a.03.03,0,0,1-.033-.033v-7.239C101.971,141.821,101.971,141.81,101.993,141.81Z" transform="translate(-73.733 -141.81)" fill="#fff"/>
        <path id="Path_1438" data-name="Path 1438" d="M117.433,141.81h7.752a2.536,2.536,0,0,1,1.88.9,1.841,1.841,0,0,1,.382,1.063v5.313a.03.03,0,0,1-.033.033h-2.276a.03.03,0,0,1-.033-.033v-4.23a1.2,1.2,0,0,0-.831-1.26,1.486,1.486,0,0,0-.363-.047h-4.178v5.537a.03.03,0,0,1-.033.033h-2.267a.03.03,0,0,1-.033-.033v-7.239C117.4,141.821,117.413,141.81,117.433,141.81Z" transform="translate(-84.898 -141.81)" fill="#fff"/>
        <path id="Path_1439" data-name="Path 1439" d="M160.711,141.81h2.276a.035.035,0,0,1,.036.036v7.239c0,.022,0,.033-.036.033h-2.267a.03.03,0,0,1-.033-.033v-7.239C160.681,141.821,160.692,141.81,160.711,141.81Z" transform="translate(-116.2 -141.81)" fill="#fff"/>
        <path id="Path_1440" data-name="Path 1440" d="M176.123,141.81h9.966a.033.033,0,0,1,.033.036v1.661c0,.025,0,.036-.033.036h-3.8v5.537a.03.03,0,0,1-.033.033H179.98a.03.03,0,0,1-.033-.033v-5.537h-3.823c-.022,0-.033,0-.033-.036v-1.661C176.1,141.821,176.107,141.81,176.123,141.81Z" transform="translate(-127.341 -141.81)" fill="#fff"/>
        <path id="Path_1441" data-name="Path 1441" d="M219.393,141.81h2.3l2.7,2.91q2.619-2.857,2.683-2.91h2.3a.033.033,0,0,1,.033.036q-.31.313-3.856,4.18v3.059a.03.03,0,0,1-.033.033h-2.276a.03.03,0,0,1-.033-.033v-3.07l-3.854-4.194Z" transform="translate(-158.632 -141.81)" fill="#fff"/>
      </g>
      <g id="PROTECTION_SERVICES" data-name="PROTECTION SERVICES" transform="translate(0.089 48.295)" style="isolation: isolate">
        <g id="Group_2480" data-name="Group 2480" style="isolation: isolate">
          <path id="Path_1442" data-name="Path 1442" d="M.32,177.054v-2.445h.922a2.493,2.493,0,0,1,.374.022.753.753,0,0,1,.3.114.623.623,0,0,1,.2.238.77.77,0,0,1,.072.332.75.75,0,0,1-.2.529.952.952,0,0,1-.717.216H.644v.994Zm.324-1.282h.631a.651.651,0,0,0,.446-.119.41.41,0,0,0,.133-.327.435.435,0,0,0-.078-.263.36.36,0,0,0-.2-.144,1.421,1.421,0,0,0-.3-.022H.644Z" transform="translate(-0.32 -174.564)" fill="#fff"/>
          <path id="Path_1443" data-name="Path 1443" d="M14.62,177.051v-2.445H15.7a1.519,1.519,0,0,1,.5.064.532.532,0,0,1,.277.235.678.678,0,0,1,.1.368.609.609,0,0,1-.169.437.858.858,0,0,1-.52.227.978.978,0,0,1,.2.122,1.728,1.728,0,0,1,.277.327l.424.664h-.421l-.324-.509c-.094-.147-.172-.257-.233-.335a.772.772,0,0,0-.163-.166.5.5,0,0,0-.149-.064.94.94,0,0,0-.18,0h-.374v1.085Zm.324-1.365h.695a1.042,1.042,0,0,0,.346-.047.379.379,0,0,0,.191-.147.387.387,0,0,0,.064-.219.365.365,0,0,0-.125-.277.587.587,0,0,0-.4-.113h-.772Z" transform="translate(-10.661 -174.562)" fill="#fff"/>
          <path id="Path_1444" data-name="Path 1444" d="M29.194,175.747a1.34,1.34,0,0,1,.327-.955,1.124,1.124,0,0,1,.844-.343,1.176,1.176,0,0,1,.612.163,1.036,1.036,0,0,1,.412.451,1.431,1.431,0,0,1,.144.656,1.448,1.448,0,0,1-.149.664,1.038,1.038,0,0,1-.426.446,1.224,1.224,0,0,1-.592.149,1.152,1.152,0,0,1-.617-.166,1.046,1.046,0,0,1-.412-.457A1.365,1.365,0,0,1,29.194,175.747Zm.335,0a.966.966,0,0,0,.238.695.831.831,0,0,0,1.2,0,1.033,1.033,0,0,0,.235-.728,1.257,1.257,0,0,0-.1-.52.773.773,0,0,0-.3-.343.786.786,0,0,0-.435-.122.831.831,0,0,0-.592.235,1.052,1.052,0,0,0-.244.789Z" transform="translate(-21.199 -174.448)" fill="#fff"/>
          <path id="Path_1445" data-name="Path 1445" d="M45.346,177.083v-2.157H44.54v-.277h1.938v.277H45.67v2.157Z" transform="translate(-32.298 -174.594)" fill="#fff"/>
          <path id="Path_1446" data-name="Path 1446" d="M58.81,177.055V174.61h1.769v.277h-1.44v.75h1.354v.277H59.139v.831h1.495v.277Z" transform="translate(-42.617 -174.565)" fill="#fff"/>
          <path id="Path_1447" data-name="Path 1447" d="M74.567,176.086l.324.083a1.085,1.085,0,0,1-.368.606.994.994,0,0,1-.645.21,1.151,1.151,0,0,1-.642-.161,1.008,1.008,0,0,1-.379-.465,1.68,1.68,0,0,1-.127-.656,1.453,1.453,0,0,1,.144-.667,1.011,1.011,0,0,1,.415-.432,1.207,1.207,0,0,1,.6-.147,1.008,1.008,0,0,1,.617.186.958.958,0,0,1,.346.526l-.318.075a.742.742,0,0,0-.246-.388.648.648,0,0,0-.407-.122.781.781,0,0,0-.471.136.7.7,0,0,0-.277.36,1.434,1.434,0,0,0-.078.471,1.489,1.489,0,0,0,.091.554.67.67,0,0,0,.277.346.783.783,0,0,0,.415.116.687.687,0,0,0,.46-.158A.781.781,0,0,0,74.567,176.086Z" transform="translate(-52.683 -174.455)" fill="#fff"/>
          <path id="Path_1448" data-name="Path 1448" d="M88.166,177.083v-2.157H87.36v-.277H89.3v.277H88.49v2.157Z" transform="translate(-63.264 -174.594)" fill="#fff"/>
          <path id="Path_1449" data-name="Path 1449" d="M101.81,177.055V174.61h.329v2.445Z" transform="translate(-73.713 -174.565)" fill="#fff"/>
          <path id="Path_1450" data-name="Path 1450" d="M110.724,175.747a1.329,1.329,0,0,1,.327-.955,1.108,1.108,0,0,1,.831-.343,1.165,1.165,0,0,1,.609.163,1.041,1.041,0,0,1,.415.451,1.465,1.465,0,0,1,.141.656,1.448,1.448,0,0,1-.15.664,1.021,1.021,0,0,1-.426.446,1.215,1.215,0,0,1-.592.149,1.165,1.165,0,0,1-.617-.166,1.08,1.08,0,0,1-.413-.457A1.362,1.362,0,0,1,110.724,175.747Zm.332,0a.98.98,0,0,0,.238.695.83.83,0,0,0,1.2,0,1.046,1.046,0,0,0,.244-.734,1.213,1.213,0,0,0-.1-.52.767.767,0,0,0-.293-.346.794.794,0,0,0-.437-.122.831.831,0,0,0-.59.235,1.052,1.052,0,0,0-.257.8Z" transform="translate(-80.157 -174.448)" fill="#fff"/>
          <path id="Path_1451" data-name="Path 1451" d="M126.71,177.055V174.61h.332l1.285,1.919V174.61h.31v2.445H128.3l-1.285-1.921v1.921Z" transform="translate(-91.72 -174.565)" fill="#fff"/>
          <path id="Path_1452" data-name="Path 1452" d="M150.76,176.159l.3-.025a.7.7,0,0,0,.1.3.534.534,0,0,0,.246.191.9.9,0,0,0,.374.072.85.85,0,0,0,.327-.055.448.448,0,0,0,.213-.149.36.36,0,0,0,.069-.21.316.316,0,0,0-.066-.2.532.532,0,0,0-.221-.147c-.066-.025-.21-.064-.435-.119a2.094,2.094,0,0,1-.473-.152.659.659,0,0,1-.26-.227.554.554,0,0,1-.086-.3.631.631,0,0,1,.412-.59,1.158,1.158,0,0,1,.449-.083,1.232,1.232,0,0,1,.479.086.673.673,0,0,1,.318.257.745.745,0,0,1,.122.388l-.31.022a.5.5,0,0,0-.169-.349.653.653,0,0,0-.426-.119.684.684,0,0,0-.429.108.318.318,0,0,0-.133.257.277.277,0,0,0,.094.219,1.323,1.323,0,0,0,.487.174,3.213,3.213,0,0,1,.554.155.772.772,0,0,1,.316.249.615.615,0,0,1,.1.349.651.651,0,0,1-.111.365.734.734,0,0,1-.321.277,1.077,1.077,0,0,1-.471.1,1.423,1.423,0,0,1-.554-.1.758.758,0,0,1-.352-.291A.831.831,0,0,1,150.76,176.159Z" transform="translate(-109.112 -174.456)" fill="#fff"/>
          <path id="Path_1453" data-name="Path 1453" d="M165.46,177.055V174.61h1.769v.277h-1.445v.75h1.354v.277h-1.354v.831h1.5v.277Z" transform="translate(-119.742 -174.565)" fill="#fff"/>
        </g>
        <g id="Group_2481" data-name="Group 2481" transform="translate(49.668 0.044)" style="isolation: isolate">
          <path id="Path_1454" data-name="Path 1454" d="M179.73,177.051v-2.445h1.085a1.5,1.5,0,0,1,.5.064.554.554,0,0,1,.277.235.7.7,0,0,1,.1.368.62.62,0,0,1-.166.437.866.866,0,0,1-.52.227.944.944,0,0,1,.194.122,1.726,1.726,0,0,1,.277.327l.426.664h-.407l-.324-.509c-.094-.147-.174-.257-.235-.335a.712.712,0,0,0-.163-.166.454.454,0,0,0-.147-.064.956.956,0,0,0-.18,0h-.388v1.085Zm.324-1.365h.695a1.046,1.046,0,0,0,.349-.047.363.363,0,0,0,.188-.147.39.39,0,0,0,.066-.219.36.36,0,0,0-.127-.277.582.582,0,0,0-.4-.113h-.775Z" transform="translate(-179.73 -174.606)" fill="#fff"/>
        </g>
        <g id="Group_2482" data-name="Group 2482" transform="translate(53.503 0.003)" style="isolation: isolate">
          <path id="Path_1455" data-name="Path 1455" d="M194.527,177.055l-.947-2.445h.349l.637,1.775c.05.144.094.277.127.4.039-.133.083-.277.133-.4l.662-1.775h.329l-.958,2.445Z" transform="translate(-193.58 -174.568)" fill="#fff"/>
          <path id="Path_1456" data-name="Path 1456" d="M208.9,177.055V174.61h.324v2.445Z" transform="translate(-204.659 -174.568)" fill="#fff"/>
          <path id="Path_1457" data-name="Path 1457" d="M219.677,176.086l.324.083a1.107,1.107,0,0,1-.365.606,1,1,0,0,1-.648.21,1.157,1.157,0,0,1-.642-.161,1,1,0,0,1-.376-.465,1.68,1.68,0,0,1-.13-.656,1.454,1.454,0,0,1,.147-.667,1.011,1.011,0,0,1,.415-.432,1.2,1.2,0,0,1,.592-.147,1,1,0,0,1,.617.185.975.975,0,0,1,.349.526l-.318.075a.758.758,0,0,0-.246-.388.648.648,0,0,0-.407-.122.792.792,0,0,0-.473.136.728.728,0,0,0-.277.36,1.509,1.509,0,0,0-.075.471,1.552,1.552,0,0,0,.089.554.662.662,0,0,0,.277.346.783.783,0,0,0,.415.116.7.7,0,0,0,.46-.158A.8.8,0,0,0,219.677,176.086Z" transform="translate(-211.123 -174.458)" fill="#fff"/>
          <path id="Path_1458" data-name="Path 1458" d="M233.16,177.055V174.61h1.769v.277h-1.445v.75h1.354v.277h-1.354v.831h1.5v.277Z" transform="translate(-222.203 -174.568)" fill="#fff"/>
          <path id="Path_1459" data-name="Path 1459" d="M247,176.159l.3-.025a.659.659,0,0,0,.1.3.534.534,0,0,0,.246.191.906.906,0,0,0,.376.072.862.862,0,0,0,.327-.055.454.454,0,0,0,.21-.149.343.343,0,0,0,.069-.21.316.316,0,0,0-.066-.2.515.515,0,0,0-.221-.147c-.064-.025-.21-.064-.435-.119a2.012,2.012,0,0,1-.471-.152.65.65,0,0,1-.277-.227.573.573,0,0,1-.086-.3.634.634,0,0,1,.105-.346.662.662,0,0,1,.307-.244,1.176,1.176,0,0,1,.448-.083,1.224,1.224,0,0,1,.479.086.7.7,0,0,1,.321.257.745.745,0,0,1,.119.388l-.31.022a.49.49,0,0,0-.169-.349.653.653,0,0,0-.426-.119.689.689,0,0,0-.429.108.318.318,0,0,0-.133.257.277.277,0,0,0,.094.219,1.367,1.367,0,0,0,.49.174,3.084,3.084,0,0,1,.54.155.772.772,0,0,1,.316.249.614.614,0,0,1,.1.349.653.653,0,0,1-.114.365.72.72,0,0,1-.321.277,1.077,1.077,0,0,1-.471.1,1.423,1.423,0,0,1-.554-.1.773.773,0,0,1-.352-.291.808.808,0,0,1-.122-.448Z" transform="translate(-232.21 -174.459)" fill="#fff"/>
        </g>
      </g>
      <path id="Path_1428" data-name="Path 1428" d="M84.289,0C74.707,0,69.27,2.879,69.27,2.879s.105,15.392,3.491,22.111c1.755,3.48,11.528,9.986,11.528,9.986s9.457-6.345,11.3-9.784c3.56-6.625,3.715-22.314,3.715-22.314S93.981,0,84.289,0Zm9.673,24.321a15.574,15.574,0,0,1-3.189,3.416c-.831.72-1.686,1.506-3.322,2.768-1.285,1-2.685,1.885-3.17,2.215-.941-.656-2.425-1.711-3.973-2.91-.44-.341-.831-.662-1.221-.966l.033.017.341.18.2.1.047.022h.033l.08.042c1.528.379,5.481-.93,9.252-3.247A26.965,26.965,0,0,0,93,23.044a17.944,17.944,0,0,0,2.375-2.558,18.272,18.272,0,0,1-1.417,3.84Zm2.854-11.83c-.028-.069-.058-.138-.086-.2l-.119-.241-.421-.831h0c-.119-.2-.208-.352-.293-.487a3.617,3.617,0,0,0-.277-.4c-.039-.055-.08-.114-.127-.174-.141-.191-.321-.424-.579-.761L94.9,9.379c-.149-.174-.277-.31-.374-.429a4.484,4.484,0,0,0-.374-.388l-.044-.042c-.174-.169-.393-.368-.723-.67L93.33,7.8l-.05-.05.089.078a7.172,7.172,0,0,1,.526.52A4.834,4.834,0,0,1,95,10.539a5.766,5.766,0,0,1-.338,3.217,13.565,13.565,0,0,1-2.649,4.1,27.18,27.18,0,0,1-4.153,3.7C83.987,24.4,79.422,26.405,76.5,26.355l-.307-.042a9.325,9.325,0,0,1-1.8-2.168,14.971,14.971,0,0,1-.706-1.722,4.449,4.449,0,0,0,1.066.086C78.2,22.291,82.5,19.72,85.2,17.859c.3-.2.581-.41.858-.615a17.932,17.932,0,0,0,4.6-4.706,6.338,6.338,0,0,0,1.107-3.5,3.6,3.6,0,0,0-1.384-2.716,7.213,7.213,0,0,0-3.35-1.384h-.042c-.18-.025-.385-.047-.59-.069s-.437-.044-.623-.058H84.5a4.6,4.6,0,0,0-.515.036h-.022L83.5,4.9h-.039l-.208.028-.2.033h-.127l-.382.072h0l-.3.064-.1.025H82.1l-.376.1h-.019l-.363.105h-.03l-.357.116h0l-.069.025-.125.047-.05.017a3.133,3.133,0,0,0-1.584.991.2.2,0,0,0,.058.26c.233.177.947.161,2.024-.255a.426.426,0,0,1,.1-.338c.515-.7,2.893-1.226,4.513-.515a2.876,2.876,0,0,1,.493.277,2.093,2.093,0,0,1,.855,2.425,9.1,9.1,0,0,1-2.854,4.009,20.19,20.19,0,0,1-9.831,4.958c-1.985.185-2.057-.365-2.09-.6v.332A97.236,97.236,0,0,1,71.18,4.042,36.035,36.035,0,0,1,84.325,1.827,36.086,36.086,0,0,1,97.466,4.042c-.033,1.495-.172,4.263-.487,7.328C96.9,11.766,96.88,12.131,96.816,12.491Z" transform="translate(-50.093)" fill="#fff"/>
    </g>
  </g>
</svg>
