<svg xmlns="http://www.w3.org/2000/svg" xmlns:xlink="http://www.w3.org/1999/xlink" width="90" height="64.288" viewBox="0 0 90 64.288">
  <defs>
    <linearGradient id="linear-gradient" x1="0.907" y1="0.04" x2="0.133" y2="0.652" gradientUnits="objectBoundingBox">
      <stop offset="0.01" stop-color="#5fc8d7"/>
      <stop offset="0.14" stop-color="#44c4da"/>
      <stop offset="0.65" stop-color="#0b67b2"/>
      <stop offset="1" stop-color="#14244c"/>
    </linearGradient>
  </defs>
  <g id="logo_blue" transform="translate(-117.69 -79.678)">
    <rect id="Rectangle_217" data-name="Rectangle 217" width="90" height="64" transform="translate(117.69 79.678)" fill="rgba(0,0,0,0)"/>
    <g id="Layer_11_copy_2" data-name="Layer 11 copy 2" transform="translate(117.891 79.886)">
      <g id="Group_2479" data-name="Group 2479" transform="translate(0 49.488)" style="isolation: isolate">
        <path id="Path_1434" data-name="Path 1434" d="M.042,141.81H2.9a.041.041,0,0,1,.042.045v9.126a.038.038,0,0,1-.042.042H.042A.038.038,0,0,1,0,150.981v-9.126A.041.041,0,0,1,.042,141.81Z" transform="translate(0.001 -141.81)" fill="#1c3360"/>
        <path id="Path_1435" data-name="Path 1435" d="M15.482,141.81h9.771a3.2,3.2,0,0,1,2.37,1.134,2.321,2.321,0,0,1,.482,1.34v6.7a.038.038,0,0,1-.042.042H25.183a.038.038,0,0,1-.042-.042v-5.332a1.511,1.511,0,0,0-1.047-1.588,1.872,1.872,0,0,0-.457-.059H18.382v6.98a.038.038,0,0,1-.042.042H15.482a.038.038,0,0,1-.042-.042v-9.126C15.443,141.824,15.457,141.81,15.482,141.81Z" transform="translate(-10.051 -141.81)" fill="#1c3360"/>
        <path id="Path_1436" data-name="Path 1436" d="M58.742,141.81H71.3a.041.041,0,0,1,.042.045v2.094c0,.031,0,.045-.042.045H58.742c-.028,0-.042,0-.042-.045v-2.094C58.7,141.824,58.717,141.81,58.742,141.81Zm0,3.608H71.3a.037.037,0,0,1,.042.042v1.916a.038.038,0,0,1-.042.042h-9.66v3.563c0,.028,0,.042-.045.042H58.742a.038.038,0,0,1-.042-.042V145.46Q58.707,145.418,58.742,145.418Z" transform="translate(-38.215 -141.81)" fill="#1c3360"/>
        <path id="Path_1437" data-name="Path 1437" d="M102,141.81h2.862a.041.041,0,0,1,.042.045v9.126a.038.038,0,0,1-.042.042H102a.038.038,0,0,1-.042-.042v-9.126C101.974,141.824,101.974,141.81,102,141.81Z" transform="translate(-66.378 -141.81)" fill="#1c3360"/>
        <path id="Path_1438" data-name="Path 1438" d="M117.442,141.81h9.771a3.2,3.2,0,0,1,2.37,1.134,2.321,2.321,0,0,1,.482,1.34v6.7a.038.038,0,0,1-.042.042h-2.869a.038.038,0,0,1-.042-.042v-5.332a1.511,1.511,0,0,0-1.047-1.588,1.872,1.872,0,0,0-.457-.059h-5.266v6.98a.038.038,0,0,1-.042.042h-2.858a.038.038,0,0,1-.042-.042v-9.126C117.4,141.824,117.417,141.81,117.442,141.81Z" transform="translate(-76.43 -141.81)" fill="#1c3360"/>
        <path id="Path_1439" data-name="Path 1439" d="M160.718,141.81h2.869a.044.044,0,0,1,.045.045v9.126c0,.028,0,.042-.045.042h-2.858a.038.038,0,0,1-.042-.042v-9.126C160.68,141.824,160.694,141.81,160.718,141.81Z" transform="translate(-104.61 -141.81)" fill="#1c3360"/>
        <path id="Path_1440" data-name="Path 1440" d="M176.132,141.81H188.7a.041.041,0,0,1,.042.045v2.094c0,.031,0,.045-.042.045H183.9v6.98a.038.038,0,0,1-.042.042h-2.869a.038.038,0,0,1-.042-.042v-6.98h-4.819c-.028,0-.042,0-.042-.045v-2.094C176.1,141.824,176.111,141.81,176.132,141.81Z" transform="translate(-114.639 -141.81)" fill="#1c3360"/>
        <path id="Path_1441" data-name="Path 1441" d="M219.4,141.81h2.9l3.4,3.668q3.3-3.6,3.382-3.668h2.9a.041.041,0,0,1,.042.045q-.391.394-4.861,5.27v3.856a.038.038,0,0,1-.042.042H224.26a.038.038,0,0,1-.042-.042v-3.87l-4.858-5.287Z" transform="translate(-142.808 -141.81)" fill="#1c3360"/>
      </g>
      <g id="PROTECTION_SERVICES" data-name="PROTECTION SERVICES" transform="translate(0.112 60.878)" style="isolation: isolate">
        <g id="Group_2480" data-name="Group 2480" style="isolation: isolate">
          <path id="Path_1442" data-name="Path 1442" d="M.32,177.691v-3.081H1.482a3.138,3.138,0,0,1,.471.028.949.949,0,0,1,.38.143.785.785,0,0,1,.248.3.97.97,0,0,1,.091.419.946.946,0,0,1-.248.667,1.2,1.2,0,0,1-.9.272H.728v1.253Zm.408-1.616h.8a.82.82,0,0,0,.562-.15.516.516,0,0,0,.168-.412.548.548,0,0,0-.1-.332A.454.454,0,0,0,1.9,175a1.792,1.792,0,0,0-.38-.028H.728Z" transform="translate(-0.32 -174.553)" fill="#1497cb"/>
          <path id="Path_1443" data-name="Path 1443" d="M14.62,177.689v-3.081h1.364a1.916,1.916,0,0,1,.628.08.67.67,0,0,1,.349.3.855.855,0,0,1,.129.464.768.768,0,0,1-.213.551,1.082,1.082,0,0,1-.656.286,1.232,1.232,0,0,1,.248.154,2.177,2.177,0,0,1,.349.412l.534.838h-.53l-.408-.642c-.119-.185-.216-.325-.293-.422a.974.974,0,0,0-.206-.209.626.626,0,0,0-.188-.08,1.186,1.186,0,0,0-.227,0h-.471V177.7Zm.408-1.72H15.9a1.313,1.313,0,0,0,.436-.059.478.478,0,0,0,.241-.185.489.489,0,0,0,.08-.276.461.461,0,0,0-.157-.349.74.74,0,0,0-.5-.143h-.974Z" transform="translate(-9.63 -174.551)" fill="#1497cb"/>
          <path id="Path_1444" data-name="Path 1444" d="M29.195,176.085a1.689,1.689,0,0,1,.412-1.2,1.417,1.417,0,0,1,1.064-.433,1.483,1.483,0,0,1,.771.206,1.305,1.305,0,0,1,.52.569,1.8,1.8,0,0,1,.181.827,1.825,1.825,0,0,1-.188.838,1.309,1.309,0,0,1-.537.562,1.542,1.542,0,0,1-.747.188,1.452,1.452,0,0,1-.778-.209,1.319,1.319,0,0,1-.52-.576A1.72,1.72,0,0,1,29.195,176.085Zm.422,0a1.218,1.218,0,0,0,.3.876,1.047,1.047,0,0,0,1.508,0,1.3,1.3,0,0,0,.3-.918,1.584,1.584,0,0,0-.126-.656.974.974,0,0,0-.377-.433.991.991,0,0,0-.548-.154,1.047,1.047,0,0,0-.747.3,1.326,1.326,0,0,0-.307.995Z" transform="translate(-19.117 -174.448)" fill="#1497cb"/>
          <path id="Path_1445" data-name="Path 1445" d="M45.556,177.718V175H44.54v-.349h2.443V175H45.964v2.719Z" transform="translate(-29.108 -174.58)" fill="#1497cb"/>
          <path id="Path_1446" data-name="Path 1446" d="M58.81,177.691V174.61h2.23v.349H59.225v.946h1.706v.349H59.225V177.3H61.11v.349Z" transform="translate(-38.398 -174.553)" fill="#1497cb"/>
          <path id="Path_1447" data-name="Path 1447" d="M75.046,176.511l.408.1a1.368,1.368,0,0,1-.464.764,1.253,1.253,0,0,1-.813.265,1.452,1.452,0,0,1-.81-.2,1.27,1.27,0,0,1-.478-.586,2.118,2.118,0,0,1-.161-.827,1.832,1.832,0,0,1,.181-.841,1.274,1.274,0,0,1,.523-.544,1.522,1.522,0,0,1,.75-.185,1.27,1.27,0,0,1,.778.234,1.207,1.207,0,0,1,.436.663l-.4.094a.935.935,0,0,0-.311-.489.817.817,0,0,0-.513-.154.984.984,0,0,0-.593.171.876.876,0,0,0-.349.454,1.808,1.808,0,0,0-.1.593,1.877,1.877,0,0,0,.115.7.844.844,0,0,0,.349.436.988.988,0,0,0,.523.147.866.866,0,0,0,.579-.2A.984.984,0,0,0,75.046,176.511Z" transform="translate(-47.46 -174.454)" fill="#1497cb"/>
          <path id="Path_1448" data-name="Path 1448" d="M88.376,177.718V175H87.36v-.349H89.8V175H88.784v2.719Z" transform="translate(-56.985 -174.58)" fill="#1497cb"/>
          <path id="Path_1449" data-name="Path 1449" d="M101.81,177.691V174.61h.415v3.081Z" transform="translate(-66.392 -174.553)" fill="#1497cb"/>
          <path id="Path_1450" data-name="Path 1450" d="M110.724,176.086a1.675,1.675,0,0,1,.412-1.2,1.4,1.4,0,0,1,1.047-.433,1.469,1.469,0,0,1,.768.206,1.312,1.312,0,0,1,.523.569,1.846,1.846,0,0,1,.178.827,1.825,1.825,0,0,1-.188.838,1.288,1.288,0,0,1-.537.562,1.532,1.532,0,0,1-.747.188,1.469,1.469,0,0,1-.778-.209,1.361,1.361,0,0,1-.52-.576,1.717,1.717,0,0,1-.157-.768Zm.419,0a1.235,1.235,0,0,0,.3.876,1.047,1.047,0,0,0,1.511,0,1.319,1.319,0,0,0,.307-.925,1.529,1.529,0,0,0-.129-.656.967.967,0,0,0-.37-.436,1,1,0,0,0-.551-.154,1.047,1.047,0,0,0-.743.3,1.326,1.326,0,0,0-.325,1.005Z" transform="translate(-72.194 -174.448)" fill="#1497cb"/>
          <path id="Path_1451" data-name="Path 1451" d="M126.71,177.691V174.61h.419l1.619,2.418V174.61h.391v3.081h-.419L127.1,175.27v2.422Z" transform="translate(-82.603 -174.553)" fill="#1497cb"/>
          <path id="Path_1452" data-name="Path 1452" d="M150.76,176.6l.384-.031a.876.876,0,0,0,.129.377.673.673,0,0,0,.311.241,1.134,1.134,0,0,0,.471.091,1.071,1.071,0,0,0,.412-.07.565.565,0,0,0,.269-.188.454.454,0,0,0,.087-.265.4.4,0,0,0-.084-.251.67.67,0,0,0-.279-.185c-.084-.031-.265-.08-.548-.15a2.64,2.64,0,0,1-.6-.192.831.831,0,0,1-.328-.286.7.7,0,0,1-.108-.384.8.8,0,0,1,.52-.743,1.459,1.459,0,0,1,.565-.1,1.553,1.553,0,0,1,.6.108.848.848,0,0,1,.4.325.939.939,0,0,1,.154.489l-.391.028a.632.632,0,0,0-.213-.44.824.824,0,0,0-.537-.15.862.862,0,0,0-.541.136.4.4,0,0,0-.168.325.349.349,0,0,0,.119.276,1.668,1.668,0,0,0,.614.22,4.052,4.052,0,0,1,.7.2.974.974,0,0,1,.4.314.775.775,0,0,1,.126.44.82.82,0,0,1-.14.461.925.925,0,0,1-.4.349,1.358,1.358,0,0,1-.593.122,1.793,1.793,0,0,1-.7-.122.956.956,0,0,1-.443-.366,1.047,1.047,0,0,1-.188-.565Z" transform="translate(-98.26 -174.455)" fill="#1497cb"/>
          <path id="Path_1453" data-name="Path 1453" d="M165.46,177.691V174.61h2.23v.349h-1.822v.946h1.706v.349h-1.706V177.3h1.891v.349Z" transform="translate(-107.83 -174.553)" fill="#1497cb"/>
        </g>
        <g id="Group_2481" data-name="Group 2481" transform="translate(62.61 0.055)" style="isolation: isolate">
          <path id="Path_1454" data-name="Path 1454" d="M179.73,177.689v-3.081H181.1a1.891,1.891,0,0,1,.625.08.7.7,0,0,1,.349.3.883.883,0,0,1,.126.464.782.782,0,0,1-.209.551,1.092,1.092,0,0,1-.656.286,1.192,1.192,0,0,1,.244.154,2.177,2.177,0,0,1,.349.412l.537.838h-.513l-.408-.642c-.119-.185-.22-.325-.3-.422a.9.9,0,0,0-.206-.209.573.573,0,0,0-.185-.08,1.207,1.207,0,0,0-.227,0h-.489V177.7Zm.408-1.72h.876a1.319,1.319,0,0,0,.44-.059.457.457,0,0,0,.237-.185.492.492,0,0,0,.084-.276.454.454,0,0,0-.161-.349.733.733,0,0,0-.5-.143h-.977Z" transform="translate(-179.73 -174.606)" fill="#1497cb"/>
        </g>
        <g id="Group_2482" data-name="Group 2482" transform="translate(67.443 0.003)" style="isolation: isolate">
          <path id="Path_1455" data-name="Path 1455" d="M194.774,177.691l-1.193-3.081h.44l.8,2.237c.063.181.119.349.161.506.049-.168.1-.349.167-.506l.834-2.237h.415l-1.207,3.081Z" transform="translate(-193.58 -174.557)" fill="#1497cb"/>
          <path id="Path_1456" data-name="Path 1456" d="M208.9,177.691V174.61h.408v3.081Z" transform="translate(-203.554 -174.557)" fill="#1497cb"/>
          <path id="Path_1457" data-name="Path 1457" d="M220.156,176.51l.408.1a1.4,1.4,0,0,1-.461.764,1.267,1.267,0,0,1-.817.265,1.459,1.459,0,0,1-.81-.2,1.263,1.263,0,0,1-.475-.586,2.118,2.118,0,0,1-.164-.827,1.833,1.833,0,0,1,.185-.841,1.274,1.274,0,0,1,.523-.544,1.511,1.511,0,0,1,.747-.185,1.263,1.263,0,0,1,.778.234,1.229,1.229,0,0,1,.44.663l-.4.094a.956.956,0,0,0-.311-.489.816.816,0,0,0-.513-.154,1,1,0,0,0-.6.171.917.917,0,0,0-.349.454,1.9,1.9,0,0,0-.094.593,1.958,1.958,0,0,0,.112.7.834.834,0,0,0,.349.436.988.988,0,0,0,.523.147.879.879,0,0,0,.579-.2,1,1,0,0,0,.345-.6Z" transform="translate(-209.373 -174.458)" fill="#1497cb"/>
          <path id="Path_1458" data-name="Path 1458" d="M233.16,177.691V174.61h2.23v.349h-1.822v.946h1.706v.349h-1.706V177.3h1.891v.349Z" transform="translate(-219.348 -174.557)" fill="#1497cb"/>
          <path id="Path_1459" data-name="Path 1459" d="M247,176.6l.384-.031a.831.831,0,0,0,.126.377.674.674,0,0,0,.311.241,1.141,1.141,0,0,0,.475.091,1.086,1.086,0,0,0,.412-.07.572.572,0,0,0,.265-.188.433.433,0,0,0,.087-.265.4.4,0,0,0-.084-.251.649.649,0,0,0-.279-.185c-.08-.031-.265-.08-.548-.15a2.536,2.536,0,0,1-.593-.192.82.82,0,0,1-.349-.286.722.722,0,0,1-.108-.384.8.8,0,0,1,.133-.436.834.834,0,0,1,.387-.307,1.483,1.483,0,0,1,.565-.1,1.543,1.543,0,0,1,.6.108.876.876,0,0,1,.4.325.939.939,0,0,1,.15.489l-.391.028a.618.618,0,0,0-.213-.44.824.824,0,0,0-.537-.15.869.869,0,0,0-.541.136.4.4,0,0,0-.167.325.349.349,0,0,0,.119.276,1.724,1.724,0,0,0,.618.22,3.886,3.886,0,0,1,.681.2.973.973,0,0,1,.4.314.775.775,0,0,1,.129.44.824.824,0,0,1-.143.461.908.908,0,0,1-.4.349,1.357,1.357,0,0,1-.593.122,1.794,1.794,0,0,1-.7-.122.974.974,0,0,1-.443-.366A1.019,1.019,0,0,1,247,176.6Z" transform="translate(-228.357 -174.458)" fill="#1497cb"/>
        </g>
      </g>
      <path id="Path_1428" data-name="Path 1428" d="M88.2,0C76.124,0,69.27,3.629,69.27,3.629s.133,19.4,4.4,27.873C75.883,35.889,88.2,44.09,88.2,44.09s11.921-8,14.249-12.333c4.488-8.351,4.683-28.127,4.683-28.127S100.42,0,88.2,0ZM100.4,30.658a19.633,19.633,0,0,1-4.02,4.306c-1.047.907-2.125,1.9-4.188,3.49-1.619,1.267-3.385,2.377-4,2.792-1.187-.827-3.057-2.157-5.008-3.668-.555-.429-1.047-.834-1.539-1.218l.042.021.429.227.251.126.059.028h.042l.1.052c1.926.478,6.91-1.173,11.663-4.093a33.991,33.991,0,0,0,4.955-3.671,22.618,22.618,0,0,0,2.994-3.225,23.033,23.033,0,0,1-1.787,4.84Zm3.6-14.912c-.035-.087-.073-.174-.108-.255l-.15-.3-.53-1.047h0c-.15-.251-.262-.443-.37-.614a4.56,4.56,0,0,0-.349-.5c-.049-.07-.1-.143-.161-.22-.178-.241-.4-.534-.729-.96l-.017-.024c-.188-.22-.349-.391-.471-.541a5.652,5.652,0,0,0-.471-.489l-.056-.052c-.22-.213-.5-.464-.911-.845l-.07-.063-.063-.063.112.1a9.04,9.04,0,0,1,.663.656,6.093,6.093,0,0,1,1.4,2.76,7.269,7.269,0,0,1-.426,4.055,17.1,17.1,0,0,1-3.34,5.172,34.262,34.262,0,0,1-5.235,4.666c-4.886,3.577-10.64,6.107-14.329,6.044l-.387-.052a11.754,11.754,0,0,1-2.268-2.732,18.87,18.87,0,0,1-.89-2.171,5.608,5.608,0,0,0,1.344.108c4.345-.276,9.771-3.518,13.177-5.863.373-.258.733-.516,1.082-.775a22.6,22.6,0,0,0,5.8-5.933,7.99,7.99,0,0,0,1.4-4.408,4.537,4.537,0,0,0-1.745-3.423,9.092,9.092,0,0,0-4.223-1.745h-.052c-.227-.031-.485-.059-.743-.087s-.551-.056-.785-.073H88.464a5.8,5.8,0,0,0-.649.045h-.028l-.583.059h-.049l-.262.035-.251.042h-.161L86,6.341h0l-.384.08-.126.031h-.045l-.475.122h-.024l-.457.133H84.45L84,6.854h0l-.087.031-.157.059-.063.021a3.949,3.949,0,0,0-2,1.249.251.251,0,0,0,.073.328c.293.223,1.193.2,2.551-.321a.537.537,0,0,1,.122-.426c.649-.886,3.647-1.546,5.688-.649a3.625,3.625,0,0,1,.621.349,2.639,2.639,0,0,1,1.078,3.057,11.467,11.467,0,0,1-3.6,5.053c-3.284,2.987-8.194,5.681-12.392,6.25-2.5.234-2.593-.461-2.635-.757v.419A122.568,122.568,0,0,1,71.678,5.1,45.424,45.424,0,0,1,88.247,2.3,45.488,45.488,0,0,1,104.813,5.1c-.042,1.884-.216,5.374-.614,9.237C104.1,14.831,104.073,15.292,103.993,15.746Z" transform="translate(-45.096)" fill="url(#linear-gradient)"/>
    </g>
  </g>
</svg>
