<svg xmlns="http://www.w3.org/2000/svg" width="18.799" height="12.797" viewBox="0 0 18.799 12.797">
  <g id="menu_selected" transform="translate(-4.749 -19.579)">
    <path id="Path_88" data-name="Path 88" d="M15.81,47.893a1.355,1.355,0,0,0-.962-.626c.226-.5.04-.933-.655-1.377a.765.765,0,0,0-.576-.106.875.875,0,0,0-.235-1.164.982.982,0,0,0-.992-.337.326.326,0,0,0,.005-.158,1.464,1.464,0,0,0-.731-.887c-.668-.42-1.272.176-1.7.621-.345.361-.707.706-1.076,1.043a1.28,1.28,0,0,0-.52.735c-.077.7.594,1.476,1.289,1.123a2.257,2.257,0,0,0-.339.549c-.372.871.668,1.573,1.412,1.507a.229.229,0,0,0,.176-.172,1.146,1.146,0,0,0,.01.151c.1.744,1.461,1.111,2.025.791l0,0h0a1.338,1.338,0,0,0,.9.772A.982.982,0,0,0,14.779,50a8.139,8.139,0,0,1,.578-.6,2.78,2.78,0,0,0,.495-.414A.927.927,0,0,0,15.81,47.893Zm-6.3-1.4c-.579.3-.937-.9-.5-1.283.367-.322.717-.664,1.061-1.011.17-.172.334-.349.5-.524.626-.657,1.779.289,1.123.977-.1.1-.066.2.009.246-.513.686-1.359,1.11-1.936,1.739C9.8,46.522,9.674,46.409,9.513,46.491Zm1.4,2.027a.109.109,0,0,0-.129-.084.913.913,0,0,1-.751-1.6c.4-.4.869-.7,1.293-1.063.334-.289.789-1.2,1.312-1.172.268.012.631.475.739.682.131.252-.105.537-.313.751a6.4,6.4,0,0,0-.745.637C11.8,47.145,10.995,47.762,10.917,48.519Zm2.008.744a.214.214,0,0,0-.094.029c-.719.409-1.925-.558-1.344-1.318a8.058,8.058,0,0,1,.951-1l.5-.465a.158.158,0,0,0,.15-.061c.062-.065.123-.131.181-.2a.99.99,0,0,1,1.151.326c.246.234.154.556-.019.822a1.219,1.219,0,0,0-.16.118C13.813,47.9,13,48.579,12.925,49.263Zm1.9.214c-.271.27-.458.614-.914.5-.243-.062-.644-.433-.64-.7.008-.483.561-.987.946-1.33a.165.165,0,0,0,.178-.058c.071-.075.134-.148.192-.219.363-.152.666.159.9.465C15.9,48.771,15.229,49.078,14.829,49.476Z" transform="translate(-2.68 -18.497)" fill="#fff" stroke="#fff" stroke-width="0.5"/>
    <path id="Path_89" data-name="Path 89" d="M6.86,25.244c.132.142.456-.1.307-.256C6.8,24.6,4.929,23.568,5.7,22.9a9.293,9.293,0,0,0,1.6-1.831c.607-.879,1.637.319,2.456.095a4.809,4.809,0,0,0,1.232-.681,2.9,2.9,0,0,1,2.284-.1c.179.063.456-.223.237-.3a3.23,3.23,0,0,0-2.942.294c-1.191.985-1.6-.007-2.634-.073a1.082,1.082,0,0,0-.861.515,13.009,13.009,0,0,1-.889,1.18c-.242.277-.988.726-1.121,1.11a.711.711,0,0,0,.292.945A6.928,6.928,0,0,1,6.86,25.244Z" fill="#fff" stroke="#fff" stroke-width="0.5"/>
    <path id="Path_90" data-name="Path 90" d="M51.429,22.988c-.129-.783-.854-1.3-1.407-1.808-.258-.239-.746-1.522-1.357-1.193-.684.368-2.237,1.536-3.02.822a2.751,2.751,0,0,0-1.762-.85c-1.138-.1-2.236,1.014-3.089,1.616-.893.631-.38,1.643.349,2.144.545.375,1.234-.1,1.662-.428.881-.672,2.1.364,2.768.923a12.238,12.238,0,0,1,1.5,1.7,6.8,6.8,0,0,0,1.612,1.306l.281.185c.531.349.458,1.866-.658,1.343a4.876,4.876,0,0,1-1.123-.89,16.51,16.51,0,0,1-2-1.8c-.153-.2-.292.163-.175.314a20.45,20.45,0,0,0,1.837,1.627c.2.2.409.4.632.59a.119.119,0,0,0,.022.128c.264.317.637.638.55,1.092a.859.859,0,0,1-.651.525,1.113,1.113,0,0,1-.609-.092.207.207,0,0,0-.177.027c-.285-.988-1.884-1.887-2.459-2.51-.172-.187-.353.139-.219.284.62.672,3.19,2.184,2.026,3.125-.684.553-1.557-.532-2-.938L42.7,29.076c-.171-.158-.3.22-.158.349l1.375,1.268a.127.127,0,0,0,0,.025c.19.463.022.671-.347.977a.967.967,0,0,1-1.149-.032l-.86-.587c-.162-.111-.479.094-.27.237.488.333,1.049.873,1.679.859a1.606,1.606,0,0,0,1.174-.532.82.82,0,0,0,.273-.482l.173.16a1.19,1.19,0,0,0,1.712.045,1.142,1.142,0,0,0,.349-.791,1.406,1.406,0,0,0,1.622-.454.805.805,0,0,0,.05-.942c.035.018.069.037.1.054.945.443,1.644-1.305.99-1.9a8.976,8.976,0,0,0-1.163-.819,7.42,7.42,0,0,1-1.586-1.623c-.664-.808-1.97-2.253-3.135-2.252-.914,0-1.874,1.441-2.665.377-.586-.788.317-1.239.83-1.6.4-.282.789-.584,1.212-.83a2.033,2.033,0,0,1,1.313-.173c.715.127.971.571,1.506.953.666.476,1.171-.121,1.836-.321a3.25,3.25,0,0,0,1-.549c.488-.363.881.534,1.089.8a13.6,13.6,0,0,0,.987.973.847.847,0,0,1,.111,1.244,2.017,2.017,0,0,0-.123-.183A1.3,1.3,0,0,0,50.4,23.1c-.094-.074-.218.135-.122.211a1.445,1.445,0,0,1,.325.377c-.075.082-.156.163-.236.243-.046.045-.088.094-.131.141a4.7,4.7,0,0,0-.475-.355c-.106-.069-.276.053-.142.141a4.332,4.332,0,0,1,.482.365c-.112.133-.218.272-.321.415a2.639,2.639,0,0,0-.215-.272,2.811,2.811,0,0,0-.607-.457c-.1-.064-.2.158-.1.223a3.007,3.007,0,0,1,.522.384,2.11,2.11,0,0,1,.258.32q-.134.194-.266.391a3.768,3.768,0,0,0-.639-.538c-.109-.072-.215.145-.118.209a3.673,3.673,0,0,1,.624.522c-.085.123-.172.245-.262.364a1.663,1.663,0,0,0-.158-.221,1.119,1.119,0,0,0-.263-.2c-.13-.079-.175.141-.074.2a1.108,1.108,0,0,1,.2.138,1.208,1.208,0,0,1,.159.215.128.128,0,0,0,.015.017c-.044.055-.088.111-.134.164-.125.143.045.5.2.327a14.742,14.742,0,0,0,.968-1.3.151.151,0,0,0,.1-.144c.115-.162.233-.323.357-.481.02-.025.041-.05.064-.075.052-.011.094-.044.086-.088C50.886,23.968,51.524,23.568,51.429,22.988Z" transform="translate(-28.138 -0.047)" fill="#fff" stroke="#fff" stroke-width="0.5"/>
    <path id="Path_91" data-name="Path 91" d="M36.178,49.464a3.725,3.725,0,0,0,.957.887c.095.065.28-.082.163-.162a3.582,3.582,0,0,1-.918-.855C36.313,49.239,36.1,49.357,36.178,49.464Z" transform="translate(-24.825 -23.441)" fill="#fff" stroke="#fff" stroke-width="0.5"/>
  </g>
</svg>
