<svg xmlns="http://www.w3.org/2000/svg" width="21.344" height="18.305" viewBox="0 0 21.344 18.305">
  <g id="size_chart" transform="translate(-0.345 -0.5)">
    <path id="Path_1476" data-name="Path 1476" d="M182.882,100.581a2.132,2.132,0,1,0-2.132-2.132A2.135,2.135,0,0,0,182.882,100.581Zm0-3.014a.882.882,0,1,1-.882.882A.883.883,0,0,1,182.882,97.567Zm0,0" transform="translate(-173.214 -91.822)" fill="#0d5ea4"/>
    <path id="Path_1477" data-name="Path 1477" d="M20.565.5H.78A.78.78,0,0,0,0,1.279V18.026a.78.78,0,0,0,.779.779H20.565a.78.78,0,0,0,.779-.779V1.279A.78.78,0,0,0,20.565.5Zm-.471,1.251v9.9L16.161,7.714a.659.659,0,0,0-.93,0L9.668,13.277,6.115,9.724a.658.658,0,0,0-.93,0L1.251,13.657V1.751ZM1.251,17.555v-2.13l4.4-4.4L9.2,14.58a.657.657,0,0,0,.93,0L15.7,9.018l4.4,4.4v4.139Zm0,0" transform="translate(0.344)" fill="#0d5ea4"/>
  </g>
</svg>
