<svg xmlns="http://www.w3.org/2000/svg" width="6.988" height="9.317" viewBox="0 0 6.988 9.317">
  <g id="sorting" transform="translate(-14 -8)">
    <path id="Path_1471" data-name="Path 1471" d="M17.38,9.473,16.022,8.114a.388.388,0,0,0-.549,0L14.114,9.473a.388.388,0,0,0,.549.549l.7-.7v7.6a.388.388,0,0,0,.776,0v-7.6l.7.7a.388.388,0,0,0,.549-.549Z" transform="translate(0 0)" fill="#888"/>
    <path id="Path_1472" data-name="Path 1472" d="M35.38,15.3a.388.388,0,0,0-.549,0l-.7.7v-7.6a.388.388,0,0,0-.776,0v7.6l-.7-.7a.388.388,0,1,0-.549.549L33.473,17.2a.388.388,0,0,0,.549,0l1.359-1.359a.388.388,0,0,0,0-.549Z" transform="translate(-14.506 0)" fill="#888"/>
  </g>
</svg>
