<svg xmlns="http://www.w3.org/2000/svg" width="34.792" height="34.781" viewBox="0 0 34.792 34.781">
  <g id="success" transform="translate(-2.97 -3)">
    <g id="_10_Clap_Hand" data-name="10 Clap Hand" transform="translate(2.97 3)">
      <path id="Path_93" data-name="Path 93" d="M30.859,28.456,31.9,27.419a2.567,2.567,0,0,0,.166-3.528,2.483,2.483,0,0,0-1.275-.764l.21-.21a2.562,2.562,0,0,0,.166-3.529,2.49,2.49,0,0,0-1.8-.833,2.574,2.574,0,0,0-1.849.732L27.4,19.4a2.483,2.483,0,0,0-1.638-.682,2.556,2.556,0,0,0-1.841.734l-1.194,1.194a2.513,2.513,0,0,0-2.439-1.927h0a2.49,2.49,0,0,0-1.768.734l-4.557,4.557a3.122,3.122,0,0,0-.975-1.928,1.867,1.867,0,0,0-2.578.072L6.09,26.473a10.28,10.28,0,0,0-.529,14.2,10.06,10.06,0,0,0,9.789,3.067,10.4,10.4,0,0,0,1.372.095,10.042,10.042,0,0,0,7.138-2.973l8.112-8.106h0a2.578,2.578,0,0,0,.164-3.533A2.483,2.483,0,0,0,30.859,28.456Zm.311-3.763a1.387,1.387,0,0,1-.12,1.879L28.5,29.125h0l-.107.107c-.017-.017-.037-.03-.054-.046-.043-.038-.086-.074-.13-.109s-.106-.077-.16-.113-.086-.06-.131-.083c-.065-.037-.132-.068-.2-.1-.039-.018-.076-.038-.116-.053a2.37,2.37,0,0,0-.335-.107l.829-.829.208-.207a2.729,2.729,0,0,0,.289-.349c.037-.051.067-.1.1-.157s.077-.132.112-.2.074-.155.106-.234c.011-.029.019-.06.029-.088a2.6,2.6,0,0,0,.141-1.028v-.005a2.544,2.544,0,0,0-.047-.337c0-.024-.011-.048-.017-.072-.014-.06-.023-.12-.041-.173l.3-.3.01-.01a1.283,1.283,0,0,1,.95-.377A1.3,1.3,0,0,1,31.171,24.692Zm-2.808-4.557a1.326,1.326,0,0,1,.969-.383,1.3,1.3,0,0,1,.941.438,1.383,1.383,0,0,1-.124,1.878l-1.716,1.716-.012.013h0l-.106.107c-.015-.014-.031-.025-.046-.038a1.8,1.8,0,0,0-.146-.12c-.05-.036-.094-.068-.142-.1s-.1-.065-.147-.094-.12-.06-.18-.088-.09-.045-.137-.064a2.494,2.494,0,0,0-.323-.1h-.007l.21-.21a2.675,2.675,0,0,0,.3-.372c.016-.022.029-.044.044-.067a2.634,2.634,0,0,0,.184-.331c.015-.032.031-.06.045-.094a2.632,2.632,0,0,0,.134-.4c.011-.044.016-.088.024-.132a2.819,2.819,0,0,0,.04-.282c0-.06.007-.12.008-.184,0-.083,0-.165-.011-.248-.005-.06-.008-.12-.017-.175a2.5,2.5,0,0,0-.086-.366ZM9.07,41.857a8.973,8.973,0,0,1-2.622-1.992A9.084,9.084,0,0,1,6.939,27.32L11.256,23a.7.7,0,0,1,.49-.205.608.608,0,0,1,.42.16,1.95,1.95,0,0,1,.046,2.8l-4.06,4.057A.6.6,0,1,0,9,30.665l4.055-4.055L19.363,20.3a1.3,1.3,0,0,1,.923-.383h0a1.313,1.313,0,0,1,.928,2.241l-6.753,6.754a.6.6,0,1,0,.848.848l6.754-6.755L24.77,20.3a1.312,1.312,0,0,1,1.9.052,1.222,1.222,0,0,1,.3.668.287.287,0,0,0,0,.05,1.34,1.34,0,0,1,0,.19c0,.022,0,.044-.006.067a1.515,1.515,0,0,1-.028.18q-.007.032-.016.065a1.526,1.526,0,0,1-.065.186c-.006.015-.012.03-.019.044a1.5,1.5,0,0,1-.3.43l-1.392,1.392-.327.327,0,0h0v0h0l-7.662,7.659a.6.6,0,1,0,.848.848l7.659-7.659c.025-.025.053-.042.079-.064a1.357,1.357,0,0,1,.847-.317h.036a1.336,1.336,0,0,1,.265.034,1.305,1.305,0,0,1,.677.4,1.191,1.191,0,0,1,.272.54,1.454,1.454,0,0,1-.4,1.338l-.12.12L24.9,29.288c-.005.005-.007.012-.012.017l-5.019,5.019a.6.6,0,1,0,.848.848l5.036-5.033a1.3,1.3,0,0,1,.678-.36l.017,0a1.27,1.27,0,0,1,.266-.019,1.338,1.338,0,0,1,.24.031l.025,0c.031.007.06.021.088.03a1.31,1.31,0,0,1,.588.374,1.19,1.19,0,0,1,.148.2,1.422,1.422,0,0,1-.274,1.674L19.415,40.18c-.165.165-.335.321-.51.471l-.1.079c-.139.116-.28.227-.424.334-.056.041-.115.081-.171.12q-.185.13-.375.249c-.07.044-.139.086-.21.128-.12.069-.236.135-.357.2-.079.042-.159.084-.24.124-.112.055-.225.106-.339.156-.091.04-.18.082-.273.12s-.194.072-.291.107c-.113.041-.224.083-.338.12l-.067.019c-.175.054-.352.1-.531.147-.005,0-.01.005-.016.007a8.94,8.94,0,0,1-6.105-.7Zm13.942-1.844a8.882,8.882,0,0,1-4.552,2.451c.036-.023.068-.051.1-.074.193-.124.379-.261.565-.4.108-.08.219-.154.324-.24.224-.18.438-.377.648-.579.053-.05.111-.093.162-.144l8.112-8.112a2.66,2.66,0,0,0,.294-.36c.03-.043.055-.086.083-.13a2.637,2.637,0,0,0,.13-.234c.034-.068.065-.136.092-.206.017-.045.031-.091.046-.137a2.591,2.591,0,0,0,.131-.959v-.054a2.344,2.344,0,0,0-.041-.3c-.008-.04-.019-.079-.028-.12s-.02-.1-.035-.146l.3-.3h0a1.311,1.311,0,0,1,1.907.049,1.4,1.4,0,0,1-.124,1.886Z" transform="translate(-2.97 -9.229)"/>
      <path id="Path_94" data-name="Path 94" d="M57.621,7.176a.6.6,0,0,0-.848,0l-3.6,3.6a.6.6,0,1,0,.848.848l3.6-3.6A.6.6,0,0,0,57.621,7.176Z" transform="translate(-23.005 -4.602)"/>
      <path id="Path_95" data-name="Path 95" d="M57.729,15.063l-2.4,1.2a.6.6,0,0,0,.536,1.073l2.4-1.2a.6.6,0,0,0-.536-1.073Z" transform="translate(-23.805 -7.805)"/>
      <path id="Path_96" data-name="Path 96" d="M49.291,10.111a.6.6,0,0,0,.823-.205l1.8-3a.6.6,0,1,0-1.028-.618l-1.8,3A.6.6,0,0,0,49.291,10.111Z" transform="translate(-21.403 -4.201)"/>
      <path id="Path_97" data-name="Path 97" d="M23.847,8.032a.6.6,0,1,0,1.1-.472l-1.8-4.2a.6.6,0,1,0-1.1.472Z" transform="translate(-10.59 -3)"/>
      <path id="Path_98" data-name="Path 98" d="M29.6,8.8a.6.6,0,0,0,.6-.6V4.6a.6.6,0,0,0-1.2,0V8.2A.6.6,0,0,0,29.6,8.8Z" transform="translate(-13.394 -3.4)"/>
      <path id="Path_99" data-name="Path 99" d="M19.529,10.972a.6.6,0,0,0,.936-.749l-2.4-3a.6.6,0,1,0-.936.749Z" transform="translate(-8.588 -4.602)"/>
    </g>
  </g>
</svg>
