<svg id="upload" xmlns="http://www.w3.org/2000/svg" width="14.018" height="14.018" viewBox="0 0 14.018 14.018">
  <path id="Path_1474" data-name="Path 1474" d="M142.728,27.971l1.5-1.5v7.917a.725.725,0,1,0,1.45,0V26.475l1.5,1.5a.725.725,0,1,0,1.025-1.025l-2.734-2.734a.725.725,0,0,0-1.025,0L141.7,26.946a.725.725,0,0,0,1.025,1.025Z" transform="translate(-137.941 -23.999)" fill="#0d5ea4"/>
  <path id="Path_1475" data-name="Path 1475" d="M37.293,232a.725.725,0,0,0-.725.725v5.559H25.45v-5.559a.725.725,0,1,0-1.45,0v5.8a1.208,1.208,0,0,0,1.208,1.208h11.6a1.208,1.208,0,0,0,1.208-1.208v-5.8A.725.725,0,0,0,37.293,232Z" transform="translate(-24 -225.716)" fill="#0d5ea4"/>
</svg>
